<?xml version="1.0" encoding="utf-8"?>
<!-- Generator: Adobe Illustrator 21.0.2, SVG Export Plug-In . SVG Version: 6.00 Build 0)  -->
<svg version="1.1" id="Layer_1" xmlns="http://www.w3.org/2000/svg" xmlns:xlink="http://www.w3.org/1999/xlink" x="0px" y="0px"
	 viewBox="0 0 17 18" style="enable-background:new 0 0 17 18;" xml:space="preserve">
<g id="Page-1">
	<g id="Artboard" transform="translate(-1452.000000, -19.000000)">
		<g id="Symphopny-Header-CAT">
			<g id="profile-icon" transform="translate(1452.065203, 19.000000)">
				<path id="userIcon" class="st0" d="M3.9,11.2c-2.5,0-3.9,2-3.9,4.5v2C0,17.9,0.1,18,0.2,18h16.4c0.1,0,0.2-0.1,0.2-0.2v-2
					c0-2.5-1.4-4.5-3.9-4.5h-1.1c-0.1,0-0.3,0.1-0.4,0.1c-0.9,0.6-1.9,1-3,1c-1.1,0-2-0.4-2.9-1c-0.1-0.1-0.3-0.1-0.4-0.1H3.9
					L3.9,11.2z M8.4,0C5.9,0,3.9,1.8,3.9,4.9s1.7,6.3,4.5,6.3c3.1,0,4.5-3.2,4.5-6.3S10.9,0,8.4,0L8.4,0z"/>
			</g>
		</g>
	</g>
</g>
</svg>
